<svg width="38" height="48" viewBox="0 0 38 48" fill="none" xmlns="http://www.w3.org/2000/svg">
<path fill-rule="evenodd" clip-rule="evenodd" d="M21.9945 5.09621C19.7329 5.26513 17.6348 5.85098 16.4609 6.31073L14.1103 7.23132L12.2691 2.53008L14.6197 1.60949C16.2122 0.985836 18.8032 0.271589 21.6184 0.0613163C24.3938 -0.14598 27.737 0.11051 30.538 1.79764C34.5376 4.20677 35.8996 10.0396 33.6289 14.5962C31.7337 18.3991 27.6585 20.9938 21.4037 21.3356L37.3446 39.3965L35.5152 41.0704C32.1636 44.1369 26.3973 47.6757 19.9666 47.9791C16.6944 48.1335 13.263 47.4452 9.98118 45.4448C6.71348 43.4531 3.73495 40.2475 1.20411 35.584L0 33.3652L4.43756 30.957L5.64168 33.1757C7.8442 37.2342 10.2578 39.7005 12.6089 41.1336C14.946 42.5581 17.3603 43.0476 19.7287 42.9358C23.6021 42.7531 27.376 40.9503 30.1821 38.9113L9.08845 15.0124L15.9056 16.0094C24.6229 17.2844 28.0167 14.5382 29.11 12.3443C30.3972 9.76132 29.3293 6.96369 27.9329 6.12258C26.4171 5.20952 24.2959 4.92431 21.9945 5.09621Z" fill="#D62828"/>
<path d="M17.215 11.6682C16.2142 12.3244 16.7681 12.782 17.1985 13.1264C17.5713 13.4246 19.1565 13.2175 19.9574 13.0849C22.6417 12.4884 22.4981 12.1184 22.0949 11.9913C19.7154 10.3012 19.8525 8.75189 20.2142 8.20508C19.9684 8.31278 19.742 9.01701 19.742 9.43126C19.742 11.1104 19.1952 10.848 18.8141 10.0941C18.519 9.51039 18.1457 9.32632 17.9359 9.33184C18.2258 10.2929 18.4661 10.848 17.215 11.6682Z" fill="#FF7900"/>
<path d="M17.9104 12.0824C17.5724 12.4669 17.8966 13.0324 18.101 13.2672C19.5459 13.3268 21.0946 12.8502 21.6884 12.6044C21.5613 12.3227 21.2128 11.809 20.835 12.0079C20.3628 12.2564 19.6917 11.6433 19.9071 11.3119C20.0794 11.0468 20.0976 10.6326 20.0645 10.5C19.9734 10.9474 19.6751 10.8977 19.5343 11.3119C19.3934 11.7262 19.7911 11.8505 19.0372 12.3724C18.434 12.79 18.5925 11.925 18.7969 11.577C18.9162 10.8016 18.6671 10.7016 18.5069 10.6326C18.6975 11.2788 18.333 11.6019 17.9104 12.0824Z" fill="#F8AC3A"/>
<path d="M18.3914 12.5543C18.2986 12.8989 18.5394 13.1536 18.6692 13.2364C19.1 13.3358 20.5588 13.0029 21.2414 12.7697C21.2359 12.5791 21.113 12.2104 20.7609 12.43C20.0566 12.8691 19.9379 12.2367 19.8081 12.082C19.7087 12.7117 19.7185 12.6093 19.2447 12.9354C18.789 13.249 18.5046 12.8083 18.3914 12.5543Z" fill="#FFF5E1"/>
<path d="M12.5742 13.9042C15.9391 14.1338 23.7676 13.9086 28.1627 11.1709C25.9443 13.919 19.3271 17.5767 12.5742 13.9042Z" fill="#D62828"/>
<path fill-rule="evenodd" clip-rule="evenodd" d="M20.417 12.6141C24.2331 11.9468 27.2232 10.8137 27.0954 10.0833C27.0735 9.958 26.9613 9.8527 26.7712 9.76758C27.6312 9.83856 28.1543 10.0117 28.2025 10.2875C28.3345 11.0425 24.859 12.281 20.4398 13.0537C16.0205 13.8265 12.331 13.8409 12.199 13.0859C12.1474 12.7912 12.6455 12.4228 13.5348 12.0373C13.3431 12.2023 13.2513 12.3585 13.2759 12.4997C13.4037 13.2302 16.6008 13.2814 20.417 12.6141Z" fill="#FF4500"/>
<path fill-rule="evenodd" clip-rule="evenodd" d="M8.45051 16.4824L27.9244 38.5749L25.8579 39.7145C20.9461 42.4232 16.5661 41.8243 13.1857 39.8741C9.92771 37.9946 7.68098 34.9242 6.58078 32.6708L5.75008 30.9694L9.15284 29.308L9.98354 31.0094C10.8503 32.7847 12.6427 35.1892 15.0779 36.5941C16.9038 37.6474 19.1376 38.1777 21.8039 37.358L5.60986 18.9864L8.45051 16.4824Z" fill="#FFD700"/>
</svg>
